<?xml version="1.0" encoding="UTF-8"?>
<!--Generator: Apple Native CoreSVG 123-->
<!DOCTYPE svg
PUBLIC "-//W3C//DTD SVG 1.1//EN"
       "http://www.w3.org/Graphics/SVG/1.1/DTD/svg11.dtd">
<svg version="1.1" xmlns="http://www.w3.org/2000/svg" xmlns:xlink="http://www.w3.org/1999/xlink" width="3300" height="2200">
 <!--glyph: "uni1003A1.medium", point size: 100.000000, font version: "Version 15.0d7e11", template writer version: "5"-->
 <g id="Notes">
  <rect height="2200" id="artboard" style="fill:white;opacity:1" width="3300" x="0" y="0"/>
  <line id="" style="fill:none;stroke:black;opacity:1;stroke-width:0.5;" x1="263" x2="3036" y1="292" y2="292"/>
  <text style="stroke:none;fill:black;font-family:-apple-system,&quot;SF Pro Display&quot;,&quot;SF Pro Text&quot;,Helvetica,sans-serif;font-weight:bold;" transform="matrix(1 0 0 1 263 322)">Weight/Scale Variations</text>
  <text style="stroke:none;fill:black;font-family:-apple-system,&quot;SF Pro Display&quot;,&quot;SF Pro Text&quot;,Helvetica,sans-serif;text-anchor:middle;" transform="matrix(1 0 0 1 559.711 322)">Ultralight</text>
  <text style="stroke:none;fill:black;font-family:-apple-system,&quot;SF Pro Display&quot;,&quot;SF Pro Text&quot;,Helvetica,sans-serif;text-anchor:middle;" transform="matrix(1 0 0 1 856.422 322)">Thin</text>
  <text style="stroke:none;fill:black;font-family:-apple-system,&quot;SF Pro Display&quot;,&quot;SF Pro Text&quot;,Helvetica,sans-serif;text-anchor:middle;" transform="matrix(1 0 0 1 1153.13 322)">Light</text>
  <text style="stroke:none;fill:black;font-family:-apple-system,&quot;SF Pro Display&quot;,&quot;SF Pro Text&quot;,Helvetica,sans-serif;text-anchor:middle;" transform="matrix(1 0 0 1 1449.84 322)">Regular</text>
  <text style="stroke:none;fill:black;font-family:-apple-system,&quot;SF Pro Display&quot;,&quot;SF Pro Text&quot;,Helvetica,sans-serif;text-anchor:middle;" transform="matrix(1 0 0 1 1746.56 322)">Medium</text>
  <text style="stroke:none;fill:black;font-family:-apple-system,&quot;SF Pro Display&quot;,&quot;SF Pro Text&quot;,Helvetica,sans-serif;text-anchor:middle;" transform="matrix(1 0 0 1 2043.27 322)">Semibold</text>
  <text style="stroke:none;fill:black;font-family:-apple-system,&quot;SF Pro Display&quot;,&quot;SF Pro Text&quot;,Helvetica,sans-serif;text-anchor:middle;" transform="matrix(1 0 0 1 2339.98 322)">Bold</text>
  <text style="stroke:none;fill:black;font-family:-apple-system,&quot;SF Pro Display&quot;,&quot;SF Pro Text&quot;,Helvetica,sans-serif;text-anchor:middle;" transform="matrix(1 0 0 1 2636.69 322)">Heavy</text>
  <text style="stroke:none;fill:black;font-family:-apple-system,&quot;SF Pro Display&quot;,&quot;SF Pro Text&quot;,Helvetica,sans-serif;text-anchor:middle;" transform="matrix(1 0 0 1 2933.4 322)">Black</text>
  <line id="" style="fill:none;stroke:black;opacity:1;stroke-width:0.5;" x1="263" x2="3036" y1="1903" y2="1903"/>
  <g id="" transform="matrix(1 0 0 1 263 1933)">
   <path d="M 9.24805 0.830078 C 13.5547 0.830078 17.1387 -2.74414 17.1387 -7.05078 C 17.1387 -11.3574 13.5449 -14.9316 9.23828 -14.9316 C 4.94141 -14.9316 1.36719 -11.3574 1.36719 -7.05078 C 1.36719 -2.74414 4.95117 0.830078 9.24805 0.830078 Z M 9.24805 -0.654297 C 5.70312 -0.654297 2.87109 -3.49609 2.87109 -7.05078 C 2.87109 -10.6055 5.69336 -13.4473 9.23828 -13.4473 C 12.793 -13.4473 15.6348 -10.6055 15.6445 -7.05078 C 15.6543 -3.49609 12.8027 -0.654297 9.24805 -0.654297 Z M 9.22852 -3.42773 C 9.69727 -3.42773 9.9707 -3.74023 9.9707 -4.25781 L 9.9707 -6.31836 L 12.1973 -6.31836 C 12.6953 -6.31836 13.0371 -6.57227 13.0371 -7.04102 C 13.0371 -7.51953 12.7148 -7.7832 12.1973 -7.7832 L 9.9707 -7.7832 L 9.9707 -10.0098 C 9.9707 -10.5273 9.69727 -10.8496 9.22852 -10.8496 C 8.75977 -10.8496 8.50586 -10.5078 8.50586 -10.0098 L 8.50586 -7.7832 L 6.29883 -7.7832 C 5.78125 -7.7832 5.44922 -7.51953 5.44922 -7.04102 C 5.44922 -6.57227 5.80078 -6.31836 6.29883 -6.31836 L 8.50586 -6.31836 L 8.50586 -4.25781 C 8.50586 -3.75977 8.75977 -3.42773 9.22852 -3.42773 Z"/>
  </g>
  <g id="" transform="matrix(1 0 0 1 281.506 1933)">
   <path d="M 11.709 2.91016 C 17.1582 2.91016 21.6699 -1.60156 21.6699 -7.05078 C 21.6699 -12.4902 17.1484 -17.0117 11.6992 -17.0117 C 6.25977 -17.0117 1.74805 -12.4902 1.74805 -7.05078 C 1.74805 -1.60156 6.26953 2.91016 11.709 2.91016 Z M 11.709 1.25 C 7.09961 1.25 3.41797 -2.44141 3.41797 -7.05078 C 3.41797 -11.6504 7.08984 -15.3516 11.6992 -15.3516 C 16.3086 -15.3516 20 -11.6504 20.0098 -7.05078 C 20.0195 -2.44141 16.3184 1.25 11.709 1.25 Z M 11.6895 -2.41211 C 12.207 -2.41211 12.5195 -2.77344 12.5195 -3.33984 L 12.5195 -6.23047 L 15.5762 -6.23047 C 16.123 -6.23047 16.5039 -6.51367 16.5039 -7.03125 C 16.5039 -7.55859 16.1426 -7.86133 15.5762 -7.86133 L 12.5195 -7.86133 L 12.5195 -10.9277 C 12.5195 -11.5039 12.207 -11.8555 11.6895 -11.8555 C 11.1719 -11.8555 10.8789 -11.4844 10.8789 -10.9277 L 10.8789 -7.86133 L 7.83203 -7.86133 C 7.26562 -7.86133 6.89453 -7.55859 6.89453 -7.03125 C 6.89453 -6.51367 7.28516 -6.23047 7.83203 -6.23047 L 10.8789 -6.23047 L 10.8789 -3.33984 C 10.8789 -2.79297 11.1719 -2.41211 11.6895 -2.41211 Z"/>
  </g>
  <g id="" transform="matrix(1 0 0 1 304.924 1933)">
   <path d="M 14.9707 5.67383 C 21.9336 5.67383 27.6953 -0.078125 27.6953 -7.04102 C 27.6953 -14.0039 21.9238 -19.7559 14.9609 -19.7559 C 8.00781 -19.7559 2.25586 -14.0039 2.25586 -7.04102 C 2.25586 -0.078125 8.01758 5.67383 14.9707 5.67383 Z M 14.9707 3.85742 C 8.93555 3.85742 4.08203 -1.00586 4.08203 -7.04102 C 4.08203 -13.0762 8.92578 -17.9395 14.9609 -17.9395 C 21.0059 -17.9395 25.8594 -13.0762 25.8691 -7.04102 C 25.8789 -1.00586 21.0156 3.85742 14.9707 3.85742 Z M 14.9512 -1.06445 C 15.5176 -1.06445 15.8691 -1.45508 15.8691 -2.06055 L 15.8691 -6.13281 L 20.1074 -6.13281 C 20.6934 -6.13281 21.1133 -6.46484 21.1133 -7.02148 C 21.1133 -7.59766 20.7227 -7.93945 20.1074 -7.93945 L 15.8691 -7.93945 L 15.8691 -12.1875 C 15.8691 -12.8027 15.5176 -13.1934 14.9512 -13.1934 C 14.3848 -13.1934 14.0625 -12.7832 14.0625 -12.1875 L 14.0625 -7.93945 L 9.83398 -7.93945 C 9.21875 -7.93945 8.80859 -7.59766 8.80859 -7.02148 C 8.80859 -6.46484 9.23828 -6.13281 9.83398 -6.13281 L 14.0625 -6.13281 L 14.0625 -2.06055 C 14.0625 -1.47461 14.3848 -1.06445 14.9512 -1.06445 Z"/>
  </g>
  <text style="stroke:none;fill:black;font-family:-apple-system,&quot;SF Pro Display&quot;,&quot;SF Pro Text&quot;,Helvetica,sans-serif;font-weight:bold;" transform="matrix(1 0 0 1 263 1953)">Design Variations</text>
  <text style="stroke:none;fill:black;font-family:-apple-system,&quot;SF Pro Display&quot;,&quot;SF Pro Text&quot;,Helvetica,sans-serif;" transform="matrix(1 0 0 1 263 1971)">Symbols are supported in up to nine weights and three scales.</text>
  <text style="stroke:none;fill:black;font-family:-apple-system,&quot;SF Pro Display&quot;,&quot;SF Pro Text&quot;,Helvetica,sans-serif;" transform="matrix(1 0 0 1 263 1989)">For optimal layout with text and other symbols, vertically align</text>
  <text style="stroke:none;fill:black;font-family:-apple-system,&quot;SF Pro Display&quot;,&quot;SF Pro Text&quot;,Helvetica,sans-serif;" transform="matrix(1 0 0 1 263 2007)">symbols with the adjacent text.</text>
  <rect height="14" id="" style="fill:#00AEEF;stroke:none;opacity:0.4;" width="3" x="776" y="1919"/>
  <g id="" transform="matrix(1 0 0 1 779 1933)">
   <path d="M 10.5273 0 L 12.373 0 L 7.17773 -14.0918 L 5.43945 -14.0918 L 0.244141 0 L 2.08984 0 L 3.50586 -4.0332 L 9.11133 -4.0332 Z M 6.2793 -11.9531 L 6.33789 -11.9531 L 8.59375 -5.52734 L 4.02344 -5.52734 Z"/>
  </g>
  <rect height="14" id="" style="fill:#00AEEF;stroke:none;opacity:0.4;" width="3" x="791.617" y="1919"/>
  <text style="stroke:none;fill:black;font-family:-apple-system,&quot;SF Pro Display&quot;,&quot;SF Pro Text&quot;,Helvetica,sans-serif;font-weight:bold;" transform="matrix(1 0 0 1 776 1953)">Margins</text>
  <text style="stroke:none;fill:black;font-family:-apple-system,&quot;SF Pro Display&quot;,&quot;SF Pro Text&quot;,Helvetica,sans-serif;" transform="matrix(1 0 0 1 776 1971)">Leading and trailing margins on the left and right side of each symbol</text>
  <text style="stroke:none;fill:black;font-family:-apple-system,&quot;SF Pro Display&quot;,&quot;SF Pro Text&quot;,Helvetica,sans-serif;" transform="matrix(1 0 0 1 776 1989)">can be adjusted by modifying the width of the blue rectangles.</text>
  <text style="stroke:none;fill:black;font-family:-apple-system,&quot;SF Pro Display&quot;,&quot;SF Pro Text&quot;,Helvetica,sans-serif;" transform="matrix(1 0 0 1 776 2007)">Modifications are automatically applied proportionally to all</text>
  <text style="stroke:none;fill:black;font-family:-apple-system,&quot;SF Pro Display&quot;,&quot;SF Pro Text&quot;,Helvetica,sans-serif;" transform="matrix(1 0 0 1 776 2025)">scales and weights.</text>
  <g id="" transform="matrix(1 0 0 1 1289 1933)">
   <path d="M 2.83203 3.11523 L 4.375 4.6582 C 5.22461 5.48828 6.19141 5.41992 7.06055 4.46289 L 17.2754 -6.66016 C 17.7051 -6.36719 18.0957 -6.37695 18.5645 -6.47461 L 19.6094 -6.68945 L 20.3027 -5.99609 L 20.2539 -5.47852 C 20.1855 -4.95117 20.3516 -4.53125 20.8496 -4.0332 L 21.6602 -3.22266 C 22.168 -2.71484 22.8223 -2.68555 23.3008 -3.16406 L 26.5527 -6.41602 C 27.0312 -6.89453 27.0117 -7.54883 26.5039 -8.05664 L 25.6836 -8.87695 C 25.1855 -9.375 24.7754 -9.55078 24.2383 -9.47266 L 23.7109 -9.41406 L 23.0566 -10.0781 L 23.3398 -11.2207 C 23.4863 -11.7871 23.3398 -12.2559 22.7148 -12.8613 L 20.3027 -15.2539 C 16.7578 -18.7793 12.2266 -18.6719 9.11133 -15.5371 C 8.69141 -15.1074 8.64258 -14.5215 8.91602 -14.0918 C 9.15039 -13.7207 9.62891 -13.4961 10.2734 -13.6621 C 11.7871 -14.043 13.3008 -13.9258 14.7852 -12.9199 L 14.1602 -11.3379 C 13.9258 -10.752 13.9453 -10.2734 14.1797 -9.83398 L 3.01758 0.439453 C 2.08008 1.30859 1.97266 2.25586 2.83203 3.11523 Z M 10.6738 -15.1465 C 13.3398 -17.1387 16.6504 -16.8262 19.0527 -14.4141 L 21.6797 -11.8066 C 21.9141 -11.5723 21.9434 -11.3867 21.8848 -11.0938 L 21.5039 -9.53125 L 23.0762 -7.95898 L 24.043 -8.04688 C 24.3262 -8.07617 24.4141 -8.05664 24.6387 -7.83203 L 25.2637 -7.20703 L 22.5098 -4.46289 L 21.8848 -5.07812 C 21.6602 -5.30273 21.6406 -5.40039 21.6699 -5.68359 L 21.7578 -6.64062 L 20.1953 -8.20312 L 18.5742 -7.89062 C 18.291 -7.83203 18.1445 -7.83203 17.9102 -8.07617 L 15.7324 -10.2539 C 15.5078 -10.4883 15.4785 -10.625 15.6055 -10.9473 L 16.5527 -13.2227 C 14.9512 -14.7559 12.8418 -15.6055 10.8008 -14.9512 C 10.7129 -14.9219 10.6445 -14.9414 10.6152 -14.9805 C 10.5859 -15.0293 10.5859 -15.0781 10.6738 -15.1465 Z M 4.10156 2.41211 C 3.61328 1.91406 3.78906 1.61133 4.12109 1.30859 L 15.0781 -8.80859 L 16.3086 -7.57812 L 6.15234 3.34961 C 5.84961 3.68164 5.46875 3.7793 5.06836 3.37891 Z"/>
  </g>
  <text style="stroke:none;fill:black;font-family:-apple-system,&quot;SF Pro Display&quot;,&quot;SF Pro Text&quot;,Helvetica,sans-serif;font-weight:bold;" transform="matrix(1 0 0 1 1289 1953)">Exporting</text>
  <text style="stroke:none;fill:black;font-family:-apple-system,&quot;SF Pro Display&quot;,&quot;SF Pro Text&quot;,Helvetica,sans-serif;" transform="matrix(1 0 0 1 1289 1971)">Symbols should be outlined when exporting to ensure the</text>
  <text style="stroke:none;fill:black;font-family:-apple-system,&quot;SF Pro Display&quot;,&quot;SF Pro Text&quot;,Helvetica,sans-serif;" transform="matrix(1 0 0 1 1289 1989)">design is preserved when submitting to Xcode.</text>
  <text id="template-version" style="stroke:none;fill:black;font-family:-apple-system,&quot;SF Pro Display&quot;,&quot;SF Pro Text&quot;,Helvetica,sans-serif;text-anchor:end;" transform="matrix(1 0 0 1 3036 1933)">Template v.1.0</text>
  <text style="stroke:none;fill:black;font-family:-apple-system,&quot;SF Pro Display&quot;,&quot;SF Pro Text&quot;,Helvetica,sans-serif;text-anchor:end;" transform="matrix(1 0 0 1 3036 1951)">Generated from lock.fill</text>
  <text style="stroke:none;fill:black;font-family:-apple-system,&quot;SF Pro Display&quot;,&quot;SF Pro Text&quot;,Helvetica,sans-serif;text-anchor:end;" transform="matrix(1 0 0 1 3036 1969)">Typeset at 100 points</text>
  <text style="stroke:none;fill:black;font-family:-apple-system,&quot;SF Pro Display&quot;,&quot;SF Pro Text&quot;,Helvetica,sans-serif;" transform="matrix(1 0 0 1 263 726)">Small</text>
  <text style="stroke:none;fill:black;font-family:-apple-system,&quot;SF Pro Display&quot;,&quot;SF Pro Text&quot;,Helvetica,sans-serif;" transform="matrix(1 0 0 1 263 1156)">Medium</text>
  <text style="stroke:none;fill:black;font-family:-apple-system,&quot;SF Pro Display&quot;,&quot;SF Pro Text&quot;,Helvetica,sans-serif;" transform="matrix(1 0 0 1 263 1586)">Large</text>
 </g>
 <g id="Guides">
  <g id="H-reference" style="fill:#27AAE1;stroke:none;" transform="matrix(1 0 0 1 339 696)">
   <path d="M 54.9316 0 L 57.666 0 L 30.5664 -70.459 L 28.0762 -70.459 L 0.976562 0 L 3.66211 0 L 12.9395 -24.4629 L 45.7031 -24.4629 Z M 29.1992 -67.0898 L 29.4434 -67.0898 L 44.8242 -26.709 L 13.8184 -26.709 Z"/>
  </g>
  <line id="Baseline-S" style="fill:none;stroke:#27AAE1;opacity:1;stroke-width:0.577;" x1="263" x2="3036" y1="696" y2="696"/>
  <line id="Capline-S" style="fill:none;stroke:#27AAE1;opacity:1;stroke-width:0.577;" x1="263" x2="3036" y1="625.541" y2="625.541"/>
  <g id="H-reference" style="fill:#27AAE1;stroke:none;" transform="matrix(1 0 0 1 339 1126)">
   <path d="M 54.9316 0 L 57.666 0 L 30.5664 -70.459 L 28.0762 -70.459 L 0.976562 0 L 3.66211 0 L 12.9395 -24.4629 L 45.7031 -24.4629 Z M 29.1992 -67.0898 L 29.4434 -67.0898 L 44.8242 -26.709 L 13.8184 -26.709 Z"/>
  </g>
  <line id="Baseline-M" style="fill:none;stroke:#27AAE1;opacity:1;stroke-width:0.577;" x1="263" x2="3036" y1="1126" y2="1126"/>
  <line id="Capline-M" style="fill:none;stroke:#27AAE1;opacity:1;stroke-width:0.577;" x1="263" x2="3036" y1="1055.54" y2="1055.54"/>
  <g id="H-reference" style="fill:#27AAE1;stroke:none;" transform="matrix(1 0 0 1 339 1556)">
   <path d="M 54.9316 0 L 57.666 0 L 30.5664 -70.459 L 28.0762 -70.459 L 0.976562 0 L 3.66211 0 L 12.9395 -24.4629 L 45.7031 -24.4629 Z M 29.1992 -67.0898 L 29.4434 -67.0898 L 44.8242 -26.709 L 13.8184 -26.709 Z"/>
  </g>
  <line id="Baseline-L" style="fill:none;stroke:#27AAE1;opacity:1;stroke-width:0.577;" x1="263" x2="3036" y1="1556" y2="1556"/>
  <line id="Capline-L" style="fill:none;stroke:#27AAE1;opacity:1;stroke-width:0.577;" x1="263" x2="3036" y1="1485.54" y2="1485.54"/>
  <rect height="119.336" id="left-margin" style="fill:#00AEEF;stroke:none;opacity:0.4;" width="20.6055" x="1396.62" y="1030.79"/>
  <rect height="119.336" id="right-margin" style="fill:#00AEEF;stroke:none;opacity:0.4;" width="20.6055" x="1482.46" y="1030.79"/>
 </g>
 <g id="Symbols">
  <g id="Black-L" transform="matrix(1 0 0 1 2860.48 1556)">
   <path d="M 40.8203 28.418 L 105.029 28.418 C 114.6 28.418 119.238 23.6816 119.238 13.3301 L 119.238 -36.2793 C 119.238 -45.5078 115.479 -50.293 107.715 -51.123 L 107.715 -65.7715 C 107.715 -90.625 90.2832 -102.441 72.9492 -102.441 C 55.5664 -102.441 38.1836 -90.625 38.1836 -65.7715 L 38.1836 -51.0254 C 30.6641 -50.0977 26.6113 -45.3125 26.6113 -36.2793 L 26.6113 13.3301 C 26.6113 23.6816 31.3477 28.418 40.8203 28.418 Z M 56.6406 -66.6016 C 56.6406 -77.832 63.623 -84.5215 72.9492 -84.5215 C 82.2266 -84.5215 89.209 -77.832 89.209 -66.6016 L 89.209 -51.2695 L 56.6406 -51.2695 Z"/>
  </g>
  <g id="Heavy-L" transform="matrix(1 0 0 1 2564.79 1556)">
   <path d="M 40.2832 27.4902 L 103.516 27.4902 C 112.744 27.4902 117.236 22.9492 117.236 12.9395 L 117.236 -35.9863 C 117.236 -44.9707 113.525 -49.5605 105.957 -50.3418 L 105.957 -65.1367 C 105.957 -89.502 89.1113 -101.318 71.875 -101.318 C 54.6387 -101.318 37.8418 -89.502 37.8418 -65.1367 L 37.8418 -50.1953 C 30.5664 -49.2676 26.5625 -44.6777 26.5625 -35.9863 L 26.5625 12.9395 C 26.5625 22.9492 31.1035 27.4902 40.2832 27.4902 Z M 54.0039 -66.0156 C 54.0039 -78.418 61.7676 -85.6934 71.875 -85.6934 C 82.0312 -85.6934 89.7949 -78.418 89.7949 -66.0156 L 89.7949 -50.4395 L 54.0039 -50.3906 Z"/>
  </g>
  <g id="Bold-L" transform="matrix(1 0 0 1 2269.25 1556)">
   <path d="M 39.6484 26.416 L 101.855 26.416 C 110.645 26.416 114.941 22.0703 114.941 12.5 L 114.941 -35.6445 C 114.941 -44.3359 111.328 -48.7305 103.955 -49.4141 L 103.955 -64.4531 C 103.955 -88.2324 87.8418 -100.098 70.752 -100.098 C 53.6133 -100.098 37.5 -88.2324 37.5 -64.4531 L 37.5 -49.2676 C 30.4688 -48.3887 26.5137 -43.9941 26.5137 -35.6445 L 26.5137 12.5 C 26.5137 22.0703 30.8594 26.416 39.6484 26.416 Z M 51.0742 -65.3809 C 51.0742 -79.0527 59.7168 -87.0117 70.752 -87.0117 C 81.7383 -87.0117 90.4297 -79.0527 90.4297 -65.3809 L 90.4297 -49.4629 L 51.0742 -49.4629 Z"/>
  </g>
  <g id="Semibold-L" transform="matrix(1 0 0 1 1973.32 1556)">
   <path d="M 39.209 25.6836 L 100.684 25.6836 C 109.229 25.6836 113.379 21.4844 113.379 12.207 L 113.379 -35.4004 C 113.379 -43.8965 109.863 -48.1445 102.637 -48.7793 L 102.637 -63.9648 C 102.637 -87.4023 86.9629 -99.2676 69.9219 -99.2676 C 52.9297 -99.2676 37.2559 -87.4023 37.2559 -63.9648 L 37.2559 -48.584 C 30.4199 -47.7539 26.4648 -43.5059 26.4648 -35.4004 L 26.4648 12.207 C 26.4648 21.4844 30.6641 25.6836 39.209 25.6836 Z M 49.0234 -64.8926 C 49.0234 -79.541 58.252 -87.9395 69.9219 -87.9395 C 81.5918 -87.9395 90.8203 -79.541 90.8203 -64.8926 L 90.8203 -48.8281 L 49.0234 -48.7793 Z"/>
  </g>
  <g id="Medium-L" transform="matrix(1 0 0 1 1677.22 1556)">
   <path d="M 38.8672 25.1465 L 99.7559 25.1465 C 108.105 25.1465 112.207 21.0449 112.207 11.9629 L 112.207 -35.2051 C 112.207 -43.5547 108.691 -47.7051 101.611 -48.291 L 101.611 -63.623 C 101.611 -86.7676 86.2793 -98.584 69.3359 -98.584 C 52.3926 -98.584 37.0605 -86.7676 37.0605 -63.623 L 37.0605 -48.0957 C 30.3711 -47.2656 26.4648 -43.1641 26.4648 -35.2051 L 26.4648 11.9629 C 26.4648 21.0449 30.5664 25.1465 38.8672 25.1465 Z M 47.5098 -64.5508 C 47.5098 -79.8828 57.1777 -88.623 69.3359 -88.623 C 81.4453 -88.623 91.1621 -79.8828 91.1621 -64.5508 L 91.1621 -48.3398 L 47.5098 -48.291 Z"/>
  </g>
  <g id="Regular-L" transform="matrix(1 0 0 1 1381.31 1556)">
   <path d="M 38.4766 24.4141 L 98.6328 24.4141 C 106.689 24.4141 110.645 20.459 110.645 11.6699 L 110.645 -35.0098 C 110.645 -43.1152 107.227 -47.1191 100.244 -47.6562 L 100.244 -63.1348 C 100.244 -85.8887 85.4004 -97.7539 68.5547 -97.7539 C 51.6602 -97.7539 36.8164 -85.8887 36.8164 -63.1348 L 36.8164 -47.4609 C 30.3223 -46.6797 26.416 -42.6758 26.416 -35.0098 L 26.416 11.6699 C 26.416 20.459 30.3711 24.4141 38.4766 24.4141 Z M 45.459 -64.1113 C 45.459 -80.3223 55.7617 -89.5508 68.5547 -89.5508 C 81.2988 -89.5508 91.6016 -80.3223 91.6016 -64.1113 L 91.6016 -47.7051 L 45.459 -47.6074 Z"/>
  </g>
  <g id="Light-L" transform="matrix(1 0 0 1 1084.82 1556)">
   <path d="M 38.0859 24.4141 L 98.5352 24.4141 C 106.543 24.4141 110.498 20.5566 110.498 11.8164 L 110.498 -35.4004 C 110.498 -43.75 106.885 -47.6562 99.5605 -47.9492 L 99.5605 -62.8906 C 99.5605 -84.3262 85.6934 -96.7773 68.3105 -96.7773 C 50.9277 -96.7773 37.0605 -84.3262 37.0605 -62.8906 L 37.0605 -47.8516 C 30.0781 -47.3633 26.1719 -43.457 26.1719 -35.4004 L 26.1719 11.8164 C 26.1719 20.5566 30.0781 24.4141 38.0859 24.4141 Z M 43.7012 -63.4277 C 43.7012 -80.127 54.1992 -90.4785 68.3105 -90.4785 C 82.373 -90.4785 92.9688 -80.127 92.9688 -63.4277 L 92.9688 -47.998 L 43.7012 -47.9492 Z"/>
  </g>
  <g id="Thin-L" transform="matrix(1 0 0 1 788.405 1556)">
   <path d="M 37.5977 24.4141 L 98.4375 24.4141 C 106.348 24.4141 110.254 20.6543 110.254 11.9629 L 110.254 -35.9375 C 110.254 -44.5312 106.445 -48.291 98.6816 -48.3398 L 98.6816 -62.5977 C 98.6816 -82.2754 86.084 -95.459 68.0176 -95.459 C 49.9512 -95.459 37.4023 -82.2754 37.4023 -62.5977 L 37.4023 -48.3398 C 29.6875 -48.2422 25.8301 -44.4824 25.8301 -35.9375 L 25.8301 11.9629 C 25.8301 20.6543 29.6875 24.4141 37.5977 24.4141 Z M 41.3086 -62.5488 C 41.3086 -79.8828 52.1484 -91.6992 68.0176 -91.6992 C 83.7891 -91.6992 94.7266 -79.8828 94.7266 -62.5488 L 94.7266 -48.3398 L 41.3086 -48.3398 Z"/>
  </g>
  <g id="Ultralight-L" transform="matrix(1 0 0 1 491.84 1556)">
   <path d="M 37.3535 24.4141 L 98.3887 24.4141 C 106.25 24.4141 110.107 20.752 110.107 12.0605 L 110.107 -36.2305 C 110.107 -44.873 106.25 -48.5352 98.3887 -48.5352 L 98.1934 -48.5352 L 98.1934 -62.4512 C 98.1934 -81.25 86.2793 -94.7754 67.8711 -94.7754 C 49.4629 -94.7754 37.5488 -81.25 37.5488 -62.4512 L 37.5488 -48.584 L 37.207 -48.584 C 29.3945 -48.584 25.6348 -44.873 25.6348 -36.2305 L 25.6348 12.0605 C 25.6348 20.752 29.4922 24.4141 37.3535 24.4141 Z M 40.0879 -62.0605 C 40.0879 -79.7852 51.123 -92.334 67.8711 -92.334 C 84.5703 -92.334 95.6543 -79.7852 95.6543 -62.0605 L 95.6543 -48.5352 L 40.0879 -48.584 Z"/>
  </g>
  <g id="Black-M" transform="matrix(1 0 0 1 2875.59 1126)">
   <path d="M 32.1777 15.3809 L 83.4473 15.3809 C 91.2598 15.3809 95.0684 11.5234 95.0684 2.97852 L 95.0684 -36.6699 C 95.0684 -44.2871 91.9434 -48.1934 85.498 -48.877 L 85.498 -59.6191 C 85.498 -78.8086 71.6797 -88.2324 57.8125 -88.2324 C 43.9453 -88.2324 30.127 -78.8086 30.127 -59.6191 L 30.127 -48.877 C 23.7305 -48.1934 20.5566 -44.2871 20.5566 -36.6699 L 20.5566 2.97852 C 20.5566 11.5234 24.4629 15.3809 32.1777 15.3809 Z M 46.5332 -59.9609 C 46.5332 -67.334 50.9766 -72.3145 57.8125 -72.3145 C 64.6484 -72.3145 69.0918 -67.334 69.0918 -59.9609 L 69.0918 -48.9746 L 46.5332 -48.9746 Z"/>
  </g>
  <g id="Heavy-M" transform="matrix(1 0 0 1 2579.95 1126)">
   <path d="M 31.6895 14.3555 L 81.7871 14.3555 C 89.2578 14.3555 92.8711 10.6445 92.8711 2.53906 L 92.8711 -36.2305 C 92.8711 -43.5059 89.8926 -47.2656 83.7402 -47.8516 L 83.7402 -58.9844 C 83.7402 -78.0273 70.3613 -87.3047 56.7383 -87.3047 C 43.1152 -87.3047 29.7363 -78.0273 29.7363 -58.9844 L 29.7363 -47.8027 C 23.7305 -47.1191 20.5566 -43.4082 20.5566 -36.2305 L 20.5566 2.53906 C 20.5566 10.6445 24.2676 14.3555 31.6895 14.3555 Z M 44.0918 -59.5215 C 44.0918 -68.0176 49.3652 -73.3887 56.7383 -73.3887 C 64.1113 -73.3887 69.3848 -68.0176 69.3848 -59.5215 L 69.3848 -47.9492 L 44.0918 -47.9492 Z"/>
  </g>
  <g id="Bold-M" transform="matrix(1 0 0 1 2284.46 1126)">
   <path d="M 31.1035 13.1836 L 79.9316 13.1836 C 87.0117 13.1836 90.4785 9.66797 90.4785 2.00195 L 90.4785 -35.7422 C 90.4785 -42.627 87.5977 -46.1914 81.7871 -46.7773 L 81.7871 -58.3008 C 81.7871 -77.0996 68.8477 -86.2793 55.5176 -86.2793 C 42.1875 -86.2793 29.248 -77.0996 29.248 -58.3008 L 29.248 -46.6797 C 23.6816 -45.9473 20.6055 -42.4316 20.6055 -35.7422 L 20.6055 2.00195 C 20.6055 9.66797 24.0723 13.1836 31.1035 13.1836 Z M 41.4062 -58.9844 C 41.4062 -68.7988 47.5586 -74.5605 55.5176 -74.5605 C 63.4766 -74.5605 69.6777 -68.7988 69.6777 -58.9844 L 69.6777 -46.8262 L 41.4062 -46.8262 Z"/>
  </g>
  <g id="Semibold-M" transform="matrix(1 0 0 1 1988.58 1126)">
   <path d="M 30.7129 12.4023 L 78.6621 12.4023 C 85.4492 12.4023 88.7695 9.0332 88.7695 1.66016 L 88.7695 -35.4004 C 88.7695 -42.041 86.0352 -45.459 80.4199 -45.9961 L 80.4199 -57.8125 C 80.4199 -76.4648 67.8223 -85.5469 54.6875 -85.5469 C 41.5527 -85.5469 28.9551 -76.4648 28.9551 -57.8125 L 28.9551 -45.8496 C 23.6328 -45.1172 20.6055 -41.748 20.6055 -35.4004 L 20.6055 1.66016 C 20.6055 9.0332 23.9258 12.4023 30.7129 12.4023 Z M 39.502 -58.6426 C 39.502 -69.3359 46.2891 -75.3418 54.6875 -75.3418 C 63.0859 -75.3418 69.873 -69.3359 69.873 -58.6426 L 69.873 -46.0938 L 39.502 -46.0449 Z"/>
  </g>
  <g id="Medium-M" transform="matrix(1 0 0 1 1692.5 1126)">
   <path d="M 30.3711 11.7676 L 77.7344 11.7676 C 84.2773 11.7676 87.5 8.54492 87.5 1.41602 L 87.5 -35.1562 C 87.5 -41.6016 84.8633 -44.873 79.3945 -45.4102 L 79.3945 -57.4707 C 79.3945 -76.0254 67.041 -84.9609 54.0527 -84.9609 C 41.0645 -84.9609 28.7109 -76.0254 28.7109 -57.4707 L 28.7109 -45.2637 C 23.6328 -44.4824 20.6055 -41.2598 20.6055 -35.1562 L 20.6055 1.41602 C 20.6055 8.54492 23.8281 11.7676 30.3711 11.7676 Z M 38.0859 -58.3496 C 38.0859 -69.7266 45.3125 -75.9766 54.0527 -75.9766 C 62.7441 -75.9766 70.0195 -69.7266 70.0195 -58.3496 L 70.0195 -45.5078 L 38.0859 -45.459 Z"/>
  </g>
  <g id="Regular-M" transform="matrix(1 0 0 1 1396.62 1126)">
   <path d="M 29.9805 10.9863 L 76.4648 10.9863 C 82.7637 10.9863 85.8398 7.86133 85.8398 1.02539 L 85.8398 -34.8145 C 85.8398 -40.9668 83.3008 -44.1406 78.0762 -44.6777 L 78.0762 -56.9824 C 78.0762 -75.3906 66.0156 -84.2773 53.2227 -84.2773 C 40.4297 -84.2773 28.3691 -75.3906 28.3691 -56.9824 L 28.3691 -44.4336 C 23.584 -43.7012 20.6055 -40.5762 20.6055 -34.8145 L 20.6055 1.02539 C 20.6055 7.86133 23.6816 10.9863 29.9805 10.9863 Z M 36.2305 -58.0078 C 36.2305 -70.2637 44.0918 -76.7578 53.2227 -76.7578 C 62.3535 -76.7578 70.2148 -70.2637 70.2148 -58.0078 L 70.2148 -44.7266 L 36.2305 -44.6777 Z"/>
  </g>
  <g id="Light-M" transform="matrix(1 0 0 1 1100.11 1126)">
   <path d="M 29.6875 10.9863 L 76.416 10.9863 C 82.6172 10.9863 85.6934 7.95898 85.6934 1.17188 L 85.6934 -35.1562 C 85.6934 -41.5527 82.959 -44.6289 77.4414 -44.9707 L 77.4414 -56.7871 C 77.4414 -73.9746 66.2598 -83.3496 53.0273 -83.3496 C 39.7949 -83.3496 28.6133 -73.9746 28.6133 -56.7871 L 28.6133 -44.873 C 23.3887 -44.3359 20.3613 -41.2598 20.3613 -35.1562 L 20.3613 1.17188 C 20.3613 7.95898 23.4375 10.9863 29.6875 10.9863 Z M 34.668 -57.373 C 34.668 -70.1172 42.7246 -77.6367 53.0273 -77.6367 C 63.3301 -77.6367 71.4355 -70.1172 71.4355 -57.373 L 71.4355 -44.9707 L 34.668 -44.9219 Z"/>
  </g>
  <g id="Thin-M" transform="matrix(1 0 0 1 803.639 1126)">
   <path d="M 29.248 10.9863 L 76.3184 10.9863 C 82.4707 10.9863 85.498 8.05664 85.498 1.31836 L 85.498 -35.6445 C 85.498 -42.2852 82.5684 -45.2148 76.6602 -45.3125 L 76.6602 -56.4941 C 76.6602 -72.168 66.6504 -82.1777 52.7832 -82.1777 C 38.916 -82.1777 28.9062 -72.168 28.9062 -56.4941 L 28.9062 -45.3125 C 23.0957 -45.1172 20.0684 -42.1875 20.0684 -35.6445 L 20.0684 1.31836 C 20.0684 8.05664 23.0957 10.9863 29.248 10.9863 Z M 32.5195 -56.5918 C 32.5195 -69.873 40.8691 -78.7598 52.7832 -78.7598 C 64.6484 -78.7598 73.0469 -69.873 73.0469 -56.5918 L 73.0469 -45.3125 L 32.5195 -45.3125 Z"/>
  </g>
  <g id="Ultralight-M" transform="matrix(1 0 0 1 507.074 1126)">
   <path d="M 29.0039 10.9863 L 76.2695 10.9863 C 82.373 10.9863 85.3516 8.10547 85.3516 1.41602 L 85.3516 -35.8887 C 85.3516 -42.627 82.373 -45.5078 76.2695 -45.5078 L 76.2207 -45.5078 L 76.2207 -56.3965 C 76.2207 -71.1914 66.7969 -81.5918 52.6367 -81.5918 C 38.4766 -81.5918 29.0527 -71.1914 29.0527 -56.3965 L 29.0527 -45.5078 L 29.0039 -45.5078 C 22.9004 -45.5078 19.9219 -42.627 19.9219 -35.8887 L 19.9219 1.41602 C 19.9219 8.10547 22.9004 10.9863 29.0039 10.9863 Z M 31.4453 -56.1523 C 31.4453 -69.7754 39.9414 -79.2969 52.6367 -79.2969 C 65.2832 -79.2969 73.8281 -69.7754 73.8281 -56.1523 L 73.8281 -45.5078 L 31.4453 -45.5078 Z"/>
  </g>
  <g id="Black-S" transform="matrix(1 0 0 1 2888.19 696)">
   <path d="M 25.1953 4.3457 L 65.2344 4.3457 C 71.3379 4.3457 74.3164 1.31836 74.3164 -5.32227 L 74.3164 -36.3281 C 74.3164 -42.2852 71.875 -45.3125 66.8457 -45.8008 L 66.8457 -54.2969 C 66.8457 -69.3359 56.0547 -76.709 45.2148 -76.709 C 34.375 -76.709 23.584 -69.3359 23.584 -54.2969 L 23.584 -45.8008 C 18.6035 -45.3125 16.1133 -42.2852 16.1133 -36.3281 L 16.1133 -5.32227 C 16.1133 1.31836 19.1406 4.3457 25.1953 4.3457 Z M 36.2793 -54.5898 C 36.2793 -60.4492 39.8438 -64.3555 45.2148 -64.3555 C 50.5859 -64.3555 54.1504 -60.4492 54.1504 -54.5898 L 54.1504 -45.8984 L 36.2793 -45.8984 Z"/>
  </g>
  <g id="Heavy-S" transform="matrix(1 0 0 1 2592.28 696)">
   <path d="M 24.8535 3.56445 L 63.9648 3.56445 C 69.8242 3.56445 72.6562 0.634766 72.6562 -5.66406 L 72.6562 -35.9375 C 72.6562 -41.6016 70.3613 -44.5312 65.5762 -45.0195 L 65.5762 -53.8574 C 65.5762 -68.8477 54.9805 -76.0742 44.4336 -76.0742 C 33.8379 -76.0742 23.2422 -68.8477 23.2422 -53.8574 L 23.2422 -44.9707 C 18.6035 -44.4336 16.1621 -41.5039 16.1621 -35.9375 L 16.1621 -5.66406 C 16.1621 0.634766 19.043 3.56445 24.8535 3.56445 Z M 34.6191 -54.2969 C 34.6191 -60.9863 38.7695 -65.0879 44.4336 -65.0879 C 50.0488 -65.0879 54.1992 -60.9863 54.1992 -54.2969 L 54.1992 -45.1172 L 34.6191 -45.1172 Z"/>
  </g>
  <g id="Bold-S" transform="matrix(1 0 0 1 2296.47 696)">
   <path d="M 24.4141 2.63672 L 62.5977 2.63672 C 68.1152 2.63672 70.8496 -0.0976562 70.8496 -6.10352 L 70.8496 -35.5469 C 70.8496 -40.8691 68.6523 -43.6523 64.1602 -44.1406 L 64.1602 -53.3203 C 64.1602 -68.3594 53.8086 -75.3906 43.5059 -75.3906 C 33.2031 -75.3906 22.8516 -68.3594 22.8516 -53.3203 L 22.8516 -44.043 C 18.6035 -43.4082 16.2109 -40.6738 16.2109 -35.5469 L 16.2109 -6.10352 C 16.2109 -0.0976562 18.8965 2.63672 24.4141 2.63672 Z M 32.7148 -54.0039 C 32.7148 -61.6211 37.5488 -65.8691 43.5059 -65.8691 C 49.4629 -65.8691 54.2969 -61.6211 54.2969 -54.0039 L 54.2969 -44.2383 L 32.7148 -44.1895 Z"/>
  </g>
  <g id="Semibold-S" transform="matrix(1 0 0 1 2000.37 696)">
   <path d="M 24.1699 2.05078 L 61.6211 2.05078 C 66.9434 2.05078 69.5801 -0.585938 69.5801 -6.39648 L 69.5801 -35.2539 C 69.5801 -40.3809 67.4805 -43.0664 63.1836 -43.5547 L 63.1836 -52.9785 C 63.1836 -67.9688 53.0273 -74.9023 42.8711 -74.9023 C 32.7637 -74.9023 22.6074 -67.9688 22.6074 -52.9785 L 22.6074 -43.4082 C 18.6035 -42.7246 16.2109 -40.0879 16.2109 -35.2539 L 16.2109 -6.39648 C 16.2109 -0.585938 18.8477 2.05078 24.1699 2.05078 Z M 31.4453 -53.7598 C 31.4453 -62.0117 36.6699 -66.4062 42.8711 -66.4062 C 49.0723 -66.4062 54.3457 -62.0117 54.3457 -53.7598 L 54.3457 -43.6035 L 31.4453 -43.5547 Z"/>
  </g>
  <g id="Medium-S" transform="matrix(1 0 0 1 1704.15 696)">
   <path d="M 23.9258 1.5625 L 60.8887 1.5625 C 66.0645 1.5625 68.6035 -0.976562 68.6035 -6.5918 L 68.6035 -35.0098 C 68.6035 -39.9902 66.5527 -42.5781 62.4512 -43.0664 L 62.4512 -52.7344 C 62.4512 -67.7246 52.3926 -74.5605 42.4316 -74.5605 C 32.4219 -74.5605 22.4121 -67.7246 22.4121 -52.7344 L 22.4121 -42.9199 C 18.5547 -42.1875 16.2109 -39.6484 16.2109 -35.0098 L 16.2109 -6.5918 C 16.2109 -0.976562 18.7988 1.5625 23.9258 1.5625 Z M 30.4688 -53.6133 C 30.4688 -62.3535 36.0352 -66.8457 42.4316 -66.8457 C 48.7793 -66.8457 54.3945 -62.3535 54.3945 -53.6133 L 54.3945 -43.1641 L 30.4688 -43.1152 Z"/>
  </g>
  <g id="Regular-S" transform="matrix(1 0 0 1 1408.05 696)">
   <path d="M 23.6816 0.976562 L 59.9609 0.976562 C 64.8926 0.976562 67.334 -1.51367 67.334 -6.88477 L 67.334 -34.7168 C 67.334 -39.4531 65.4297 -41.9922 61.4746 -42.4805 L 61.4746 -52.3438 C 61.4746 -67.3828 51.6113 -74.0723 41.7969 -74.0723 C 32.0312 -74.0723 22.1191 -67.3828 22.1191 -52.3438 L 22.1191 -42.2363 C 18.5547 -41.5039 16.2598 -39.0625 16.2598 -34.7168 L 16.2598 -6.88477 C 16.2598 -1.51367 18.7012 0.976562 23.6816 0.976562 Z M 29.1992 -53.3691 C 29.1992 -62.7441 35.2051 -67.3828 41.7969 -67.3828 C 48.3887 -67.3828 54.4434 -62.7441 54.4434 -53.3691 L 54.4434 -42.5293 L 29.1992 -42.4805 Z"/>
  </g>
  <g id="Light-S" transform="matrix(1 0 0 1 1111.51 696)">
   <path d="M 23.3887 0.976562 L 59.8633 0.976562 C 64.7949 0.976562 67.1875 -1.41602 67.1875 -6.78711 L 67.1875 -35.0586 C 67.1875 -39.9414 65.1367 -42.4316 60.9375 -42.7246 L 60.9375 -52.1973 C 60.9375 -66.1133 51.8555 -73.291 41.6504 -73.291 C 31.4453 -73.291 22.3145 -66.1133 22.3145 -52.1973 L 22.3145 -42.627 C 18.4082 -42.0898 16.0645 -39.6973 16.0645 -35.0586 L 16.0645 -6.78711 C 16.0645 -1.41602 18.457 0.976562 23.3887 0.976562 Z M 27.7832 -52.832 C 27.7832 -62.5977 33.9844 -68.1152 41.6504 -68.1152 C 49.2676 -68.1152 55.5176 -62.5977 55.5176 -52.832 L 55.5176 -42.7734 L 27.7832 -42.7246 Z"/>
  </g>
  <g id="Thin-S" transform="matrix(1 0 0 1 815.016 696)">
   <path d="M 22.998 0.976562 L 59.8145 0.976562 C 64.6484 0.976562 67.041 -1.31836 67.041 -6.64062 L 67.041 -35.4492 C 67.041 -40.625 64.7949 -42.9688 60.2051 -43.0664 L 60.2051 -51.9531 C 60.2051 -64.502 52.1484 -72.2656 41.4062 -72.2656 C 30.6641 -72.2656 22.6074 -64.502 22.6074 -51.9531 L 22.6074 -43.0176 C 18.1641 -42.8223 15.8203 -40.5273 15.8203 -35.4492 L 15.8203 -6.64062 C 15.8203 -1.31836 18.1641 0.976562 22.998 0.976562 Z M 25.8789 -52.0996 C 25.8789 -62.4512 32.373 -69.0918 41.4062 -69.0918 C 50.3906 -69.0918 56.9336 -62.4512 56.9336 -52.0996 L 56.9336 -43.0664 L 25.8789 -43.0664 Z"/>
  </g>
  <g id="Ultralight-S" transform="matrix(1 0 0 1 518.403 696)">
   <path d="M 22.8027 0.976562 L 59.7656 0.976562 C 64.5996 0.976562 66.9434 -1.26953 66.9434 -6.54297 L 66.9434 -35.6934 C 66.9434 -40.918 64.5996 -43.2129 59.8633 -43.2129 L 59.8633 -51.8555 C 59.8633 -63.6719 52.3438 -71.7285 41.3086 -71.7285 C 30.2734 -71.7285 22.7539 -63.6719 22.7539 -51.8555 L 22.7539 -43.2129 C 18.0664 -43.2129 15.6738 -40.9668 15.6738 -35.6934 L 15.6738 -6.54297 C 15.6738 -1.26953 18.0176 0.976562 22.8027 0.976562 Z M 24.9512 -51.7578 C 24.9512 -62.3047 31.543 -69.6289 41.3086 -69.6289 C 50.9766 -69.6289 57.666 -62.3047 57.666 -51.7578 L 57.666 -43.2129 L 24.9512 -43.2129 Z"/>
  </g>
 </g>
</svg>
